<?xml version="1.0" encoding="iso-8859-1"?>
<!-- Generator: Adobe Illustrator 19.0.0, SVG Export Plug-In . SVG Version: 6.00 Build 0)  -->
<svg version="1.1" id="Layer_1" xmlns="http://www.w3.org/2000/svg" xmlns:xlink="http://www.w3.org/1999/xlink" x="0px" y="0px"
	 viewBox="0 0 512 512" style="enable-background:new 0 0 512 512;" xml:space="preserve">
<polygon style="fill:#AEADB3;" points="169.701,374.668 137.332,342.3 75.052,404.58 37.289,366.816 4.92,399.185 42.683,436.948 
	0,479.632 32.369,512 75.052,469.317 112.816,507.082 145.184,474.713 107.421,436.948 "/>
<path style="fill:#88888F;" d="M134.396,377.605c-86.267-86.267-86.267-226.637,0-312.904s226.637-86.267,312.904,0
	s86.267,226.637,0,312.904S220.663,463.872,134.396,377.605z M414.931,97.07c-68.42-68.419-179.746-68.419-248.166,0
	c-68.419,68.419-68.419,179.746,0,248.166c68.419,68.419,179.746,68.419,248.166,0C483.35,276.816,483.35,165.489,414.931,97.07z"/>
<path style="fill:#56545A;" d="M447.3,64.701L414.931,97.07c68.419,68.419,68.419,179.746,0,248.166
	c-68.42,68.419-179.746,68.419-248.166,0l-32.369,32.369c86.267,86.267,226.637,86.267,312.904,0S533.567,150.968,447.3,64.701z"/>
<g>
</g>
<g>
</g>
<g>
</g>
<g>
</g>
<g>
</g>
<g>
</g>
<g>
</g>
<g>
</g>
<g>
</g>
<g>
</g>
<g>
</g>
<g>
</g>
<g>
</g>
<g>
</g>
<g>
</g>
</svg>
